<svg width="124" height="125" viewBox="0 0 124 125" fill="none" xmlns="http://www.w3.org/2000/svg">
<g clip-path="url(#clip0_702_2824)">
<mask id="mask0_702_2824" style="mask-type:luminance" maskUnits="userSpaceOnUse" x="32" y="52" width="59" height="20">
<path d="M32.21 52.75H90.793V71.75H32.21V52.75Z" fill="white"/>
</mask>
<g mask="url(#mask0_702_2824)">
<path d="M32.21 52.75H35.68C38.396 52.75 39.753 54.436 39.753 57.808C39.753 59.096 39.577 60.051 39.224 60.675C38.872 61.298 38.248 61.77 37.354 62.09C38.379 62.5 39.081 63.025 39.458 63.665C39.844 64.297 40.036 65.249 40.036 66.52C40.036 70.007 38.543 71.75 35.558 71.75H32.21V52.75ZM34.623 61.118C35.615 61.118 36.304 60.888 36.69 60.428C37.075 59.945 37.268 59.096 37.268 57.882C37.268 55.831 36.53 54.805 35.053 54.805H34.746C34.7046 54.8019 34.663 54.8059 34.623 54.817V61.118ZM34.623 69.56C35.673 69.56 36.398 69.334 36.8 68.883C37.202 68.432 37.403 67.615 37.403 66.434C37.403 65.22 37.194 64.371 36.776 63.887C36.366 63.394 35.648 63.148 34.622 63.148L34.623 69.56ZM44.867 52.75H51.671V54.916H47.426V60.933H51.191V63.1H47.426V69.585H51.671V71.751H44.867V52.75ZM58.994 52.75H60.987L65.059 71.75H62.525L61.811 68.046H58.046L57.32 71.75H54.86L58.994 52.75ZM61.442 66.065L60.876 63.038C60.4808 60.8525 60.1729 58.6521 59.953 56.442C59.8356 57.6023 59.6879 58.7594 59.51 59.912C59.33 61.077 59.117 62.316 58.87 63.628L58.403 66.065H61.442ZM68.836 52.75H71.223L73.77 60.33C74.5393 62.5799 75.1921 64.8679 75.726 67.185C75.5372 65.8602 75.3855 64.5303 75.271 63.197C75.1754 62.0798 75.126 60.9592 75.123 59.838V52.75H77.695V71.75H75.295L72.429 63.197C72.162 62.3863 71.9119 61.5701 71.679 60.749C71.4406 59.8773 71.2272 58.9989 71.039 58.115C71.017 57.9743 70.988 57.8348 70.952 57.697C70.9139 57.5077 70.8729 57.319 70.829 57.131C70.8648 57.4424 70.8978 57.754 70.928 58.066L71.063 59.998L71.198 62.348C71.206 62.48 71.211 62.64 71.211 62.828C71.219 63.018 71.223 63.23 71.223 63.468L71.358 71.75H68.836V52.75ZM82.427 52.75H90.794L85.084 69.51H90.486V71.75H81.75L87.508 54.916H82.427V52.75Z" fill="currentColor"/>
</g>
</g>
<defs>
<clipPath id="clip0_702_2824">
<rect width="124" height="125" fill="white"/>
</clipPath>
</defs>
</svg>
