<svg width="124" height="125" viewBox="0 0 124 125" fill="none" xmlns="http://www.w3.org/2000/svg">
<path d="M96.7173 60.932V66.688C96.7773 68.508 98.2533 69.066 100.219 68.597V72.325C96.2083 73.092 92.7143 71.349 92.7143 67.354V60.932H90.0203V57.262H92.7173V53.129L96.7163 53.114V57.262H100.218V60.932H96.7173ZM48.2903 56.966C48.6603 56.972 49.0263 57.036 49.3753 57.153V61.423C49.0873 61.342 48.7943 61.276 48.4993 61.228C46.6333 60.978 43.7883 61.88 43.7883 64.986V72.059H39.7883V57.262H43.7883V59.807C44.5933 57.796 46.3453 56.966 48.2903 56.966ZM50.7403 53.149C50.7403 52.513 51.0003 51.903 51.4633 51.453C51.9303 51.001 52.5553 50.749 53.2053 50.75C53.8553 50.749 54.4813 51.001 54.9483 51.453C55.4103 51.903 55.6703 52.513 55.6703 53.149C55.6703 54.421 54.5543 55.487 53.1903 55.487C51.8563 55.487 50.7403 54.421 50.7403 53.149ZM51.2063 57.262H55.2043V72.059H51.2043L51.2063 57.262ZM88.3153 57.262V72.059H84.3173V70.402C83.3873 71.734 81.7713 72.474 79.6993 72.474C76.4133 72.474 73.8393 70.284 73.8393 66.343V57.262H77.8393V65.872C77.8393 67.883 79.1093 68.919 80.9083 68.919C82.8603 68.919 84.3183 67.825 84.3183 65.249V57.262H88.3153ZM34.9763 66.163C34.5963 67.025 33.9323 67.731 33.0943 68.163C32.2463 68.602 31.2773 68.746 30.3383 68.572C29.4043 68.401 28.5553 67.92 27.9293 67.206C27.3133 66.503 26.9613 65.606 26.9353 64.671C26.9123 63.737 27.2173 62.825 27.7953 62.091C28.3833 61.347 29.2063 60.824 30.1293 60.607C31.0583 60.386 32.0343 60.481 32.9033 60.877C33.7633 61.267 34.4633 61.94 34.8883 62.783L34.9173 62.841L38.4703 61.16L38.4403 61.101C37.6163 59.465 36.2583 58.16 34.5903 57.402C32.9053 56.633 31.0113 56.447 29.2083 56.874C27.4163 57.293 25.8193 58.307 24.6763 59.75C23.5513 61.173 22.9593 62.944 23.0033 64.757C23.0523 66.571 23.7323 68.312 24.9273 69.678C26.1413 71.064 27.7873 72 29.5993 72.334C31.4223 72.674 33.3093 72.397 34.9493 71.548C36.5763 70.711 37.8673 69.342 38.6073 67.669L38.6333 67.609L35.0033 66.103L34.9763 66.163ZM69.0303 66.103L69.0033 66.163C68.6233 67.025 67.9583 67.731 67.1203 68.163C66.2723 68.602 65.3033 68.746 64.3643 68.572C63.4303 68.401 62.5823 67.92 61.9563 67.206C61.3403 66.503 60.9883 65.606 60.9623 64.671C60.9393 63.737 61.2433 62.824 61.8223 62.091C62.4103 61.347 63.2333 60.824 64.1563 60.607C65.0853 60.386 66.0603 60.481 66.9293 60.877C67.7893 61.267 68.4893 61.94 68.9143 62.783L68.9423 62.841L72.4973 61.16L72.4673 61.101C71.6433 59.465 70.2853 58.16 68.6173 57.402C66.9313 56.632 65.0373 56.447 63.2343 56.874C61.4423 57.294 59.8453 58.307 58.7033 59.75C57.5783 61.173 56.9863 62.944 57.0293 64.757C57.0783 66.571 57.7593 68.312 58.9543 69.678C60.1683 71.064 61.8143 72 63.6263 72.334C65.4483 72.674 67.3363 72.397 68.9753 71.548C70.6023 70.711 71.8933 69.342 72.6333 67.669L72.6603 67.609L69.0303 66.103Z" fill="currentColor"/>
</svg>
