<svg width="124" height="125" viewBox="0 0 124 125" fill="none" xmlns="http://www.w3.org/2000/svg">
<g clip-path="url(#clip0_702_2816)">
<path fill-rule="evenodd" clip-rule="evenodd" d="M70.0173 60.758C69.4673 60.661 68.9173 60.565 68.3673 60.448C67.6673 60.298 65.5233 59.693 66.5483 58.505C67.0583 57.914 68.0124 57.815 68.7054 57.745C70.2784 57.59 72.3054 57.919 72.6884 59.944H75.7734C75.4984 57.827 74.1653 56.249 72.3233 55.709C70.5383 55.184 68.6934 55.132 66.7904 55.55C64.9304 55.96 62.8303 57.404 63.3223 59.917C63.6163 61.42 64.8704 62.158 66.0644 62.597C67.1294 62.989 68.2664 63.183 69.3824 63.373C69.5944 63.409 69.8054 63.445 70.0144 63.483C70.8124 63.624 72.5954 63.96 72.9854 64.781C73.4554 65.769 72.5124 66.571 71.7474 66.778C69.9874 67.255 66.0314 67.231 65.7224 64.378H62.5754C62.8334 67.481 65.2503 68.894 67.7133 69.308C69.6683 69.638 71.7673 69.576 73.6153 68.818C74.8013 68.332 76.0273 67.26 76.2153 65.798C76.5313 63.356 74.9544 62 73.0494 61.42C72.0454 61.114 71.0323 60.936 70.0173 60.758ZM85.4154 60.758C84.8654 60.661 84.3154 60.565 83.7654 60.448C83.0654 60.298 80.9213 59.693 81.9473 58.505C82.4573 57.914 83.4113 57.815 84.1033 57.745C85.6773 57.59 87.7033 57.919 88.0873 59.944H91.1723C90.8963 57.827 89.5634 56.249 87.7224 55.709C85.9364 55.184 84.0924 55.132 82.1884 55.55C80.3284 55.96 78.2284 57.404 78.7204 59.917C79.0144 61.42 80.2693 62.158 81.4633 62.597C82.5273 62.989 83.6653 63.183 84.7803 63.373C84.9923 63.409 85.2034 63.445 85.4134 63.483C86.2114 63.624 87.9934 63.96 88.3834 64.781C88.8534 65.769 87.9113 66.571 87.1453 66.778C85.3853 67.255 81.4304 67.231 81.1204 64.378H77.9743C78.2323 67.481 80.6494 68.894 83.1114 69.308C85.0664 69.638 87.1654 69.576 89.0134 68.818C90.1994 68.332 91.4263 67.26 91.6143 65.798C91.9303 63.356 90.3523 62 88.4473 61.42C87.4433 61.114 86.4314 60.936 85.4154 60.758ZM29.6454 65.432C28.4454 68.117 25.7534 69.108 23.2224 69.234C21.6744 69.314 20.1174 69.291 18.5624 69.268C17.8274 69.257 17.0924 69.246 16.3604 69.246V55.534L22.6074 55.526C24.8894 55.522 27.4784 56.138 28.9924 58.201C30.3974 60.116 30.6244 63.242 29.6444 65.431L29.6454 65.432ZM26.9204 63.627C26.5584 65.777 24.8204 66.565 23.0744 66.615C21.9074 66.649 19.5344 66.635 19.5344 66.635V58.12C19.5344 58.12 22.5724 58.109 23.0774 58.119C23.5594 58.128 24.0874 58.223 24.6584 58.403C26.7974 59.077 27.2814 61.483 26.9204 63.627ZM43.6464 62.692C44.3024 63.023 44.8233 63.835 45.0793 64.565C45.1793 64.847 45.2634 65.33 45.3354 66.015C45.4454 67.078 45.6594 69.247 45.6594 69.247H42.4694C42.4694 69.247 42.2663 67.179 42.1773 66.169C42.0213 64.384 40.6673 63.975 39.1973 63.969C37.9423 63.964 35.3894 63.969 35.3894 63.969V69.247H32.2144V55.537C32.2144 55.537 37.5274 55.524 40.1604 55.52C40.8954 55.52 41.6334 55.632 42.3734 55.857C44.2634 56.43 45.7634 58.017 45.3064 60.397C45.1104 61.417 44.5564 62.183 43.6464 62.692ZM40.3054 58.13L35.3894 58.123V61.473L39.5064 61.467C40.4974 61.46 42.1264 61.277 42.1614 59.806C42.1884 58.648 41.2174 58.161 40.3054 58.13ZM59.7024 60.858V63.396H51.4074V66.573H60.8093V69.247H48.2323V55.532H60.5424V58.138H51.4063V60.858H59.7024ZM104.234 55.532H107.984L102.328 62.254L108.122 69.247H104.172L100.384 64.332L96.4503 69.248H92.5964L98.5824 62.23L93.0303 55.532H96.8803L100.504 60.194L104.234 55.532Z" fill="currentColor"/>
</g>
<defs>
<clipPath id="clip0_702_2816">
<rect width="124" height="125" fill="white"/>
</clipPath>
</defs>
</svg>
