<svg width="124" height="125" viewBox="0 0 124 125" fill="none" xmlns="http://www.w3.org/2000/svg">
<g clip-path="url(#clip0_702_2854)">
<path d="M16.353 69.797H3V72.75H16.36L16.353 69.797ZM44.991 64.194L46.331 67.524H43.181L41.791 64.348C41.505 63.701 41.306 63.381 40.706 63.381H39.486V67.526H36.542V56.443C36.5545 56.3246 36.6079 56.2143 36.693 56.131C36.7787 56.0468 36.8905 55.9943 37.01 55.982H41.17C43.428 55.982 45.363 56.443 45.363 59.32C45.363 60.607 44.641 61.925 43.285 62.192C43.949 62.413 44.629 63.267 44.999 64.192H44.991V64.194ZM42.524 59.541C42.524 58.429 41.823 58.206 40.95 58.206H39.478V61.1H40.95C41.839 61.1 42.53 60.637 42.53 59.541H42.524ZM21.228 55.981H18.656V67.524H21.674V56.444C21.671 56.3249 21.6236 56.2113 21.541 56.1254C21.4585 56.0396 21.3468 55.9887 21.228 55.981ZM33.802 60.88H29.996V63.238H31.446V65.271C31.0126 65.3263 30.5759 65.3517 30.139 65.347C27.934 65.347 26.739 63.965 26.739 61.737C26.739 59.649 27.77 58.205 29.979 58.205C30.917 58.2407 31.8401 58.451 32.701 58.825L33.884 56.839C32.928 56.204 31.445 55.759 29.755 55.759C25.915 55.759 23.612 58.205 23.612 61.748C23.612 65.707 25.915 67.757 30.284 67.757C31.624 67.7561 32.9609 67.6289 34.277 67.377V61.404C34.287 61.3045 34.2653 61.2045 34.215 61.1181C34.1647 61.0317 34.0884 60.9634 33.997 60.923C33.9356 60.8956 33.8692 60.881 33.802 60.88ZM58.472 61.738C58.472 65.081 56.438 67.748 52.845 67.748C49.009 67.748 46.98 65.081 46.98 61.738C46.98 58.396 49.009 55.75 52.845 55.75C56.438 55.76 58.472 58.428 58.472 61.738ZM55.312 61.738C55.312 59.318 54.202 58.206 52.845 58.206C51.265 58.206 50.141 59.318 50.141 61.738C50.141 64.194 51.266 65.302 52.845 65.302C54.201 65.302 55.312 64.194 55.312 61.738ZM65.028 60.315C64.015 60.015 63.208 59.712 63.208 59.113C63.208 58.513 63.838 58.093 64.948 58.093C65.87 58.093 66.692 58.461 67.497 58.933L69.13 57.109C68.392 56.418 66.942 55.759 65.07 55.759C62.236 55.759 60.06 57.109 60.06 59.525C60.06 61.766 62.029 62.427 63.719 62.905C65.121 63.3 66.188 63.539 66.188 64.315C66.188 65.142 65.232 65.285 64.474 65.285C63.139 65.285 61.689 64.594 60.944 64.159L59.609 66.492C60.429 67.049 62.269 67.747 64.249 67.747C67.344 67.747 69.276 66.112 69.276 63.73C69.266 61.418 66.821 60.861 65.028 60.315ZM9.768 62.501L7.012 55.981H3V67.524H5.997V60.861L8.852 67.524H10.452L13.352 60.861V67.524H16.351V55.98H12.652L9.768 62.501ZM120.999 67.3H117.399L113.553 62.029V67.3H110.503V56.207C110.509 56.143 110.528 56.0809 110.558 56.0243C110.589 55.9676 110.63 55.9176 110.68 55.877C110.782 55.7946 110.912 55.7551 111.043 55.767H113.554V60.679L117.455 55.766H120.845L116.452 61.131L120.999 67.3ZM105.276 62.925C104.609 61.735 100.57 55.785 100.57 55.785H97.37V67.301H100.335V60.025L105.245 67.31H108.197V55.766H105.276V62.925ZM92.418 55.785L95.964 67.301H92.83L92.25 65.356H88.216L87.657 67.301H84.518L88 56.163C88.0347 56.0393 88.1118 55.9318 88.2179 55.8594C88.324 55.7869 88.4522 55.7542 88.58 55.767L92.418 55.785ZM91.731 63.155L90.298 57.989H90.155L88.722 63.155H91.731ZM83.876 64.13C83.885 66.458 81.922 67.301 79.236 67.301H74.469V56.285C74.4692 56.1805 74.5011 56.0785 74.5606 55.9926C74.62 55.9067 74.7043 55.8409 74.802 55.804C74.8669 55.7785 74.9362 55.7659 75.006 55.767H79.289C81.454 55.767 83.411 56.433 83.411 58.635C83.411 60.017 82.857 60.989 81.667 61.307C82.914 61.544 83.885 62.451 83.885 64.117L83.876 64.13ZM77.267 60.403H78.904C80.103 60.403 80.632 60.023 80.632 59.12C80.632 58.252 80.066 57.872 78.977 57.872H77.27L77.267 60.403ZM81.007 63.821C81.007 62.851 80.427 62.439 79.193 62.439H77.267V65.203H79.095C80.311 65.192 81.015 64.812 81.015 63.822L81.007 63.821Z" fill="currentColor"/>
</g>
<defs>
<clipPath id="clip0_702_2854">
<rect width="124" height="125" fill="white"/>
</clipPath>
</defs>
</svg>
