<svg width="124" height="125" viewBox="0 0 124 125" fill="none" xmlns="http://www.w3.org/2000/svg">
<g clip-path="url(#clip0_702_2864)">
<path fill-rule="evenodd" clip-rule="evenodd" d="M45.5488 73.8234C45.6648 73.8775 45.763 73.9637 45.8316 74.0718C45.9001 74.1799 45.9363 74.3054 45.9358 74.4334C45.9358 74.8034 45.6418 75.1014 45.2788 75.1014C45.2203 75.1012 45.1621 75.0931 45.1058 75.0774L23.2968 69.4464C22.7324 69.2894 22.2354 68.951 21.8824 68.4835C21.5294 68.0159 21.3402 67.4452 21.3438 66.8594V55.0764C21.3438 53.5984 22.5188 52.4004 23.9688 52.4004H43.3098C44.7598 52.4004 45.9358 53.5984 45.9358 55.0764V67.9434C45.9358 68.3134 45.6418 68.6124 45.2788 68.6124C45.1867 68.6124 45.0956 68.5926 45.0118 68.5544L45.0188 68.5574L40.6518 66.5404C40.4245 66.4314 40.2329 66.2601 40.0992 66.0464C39.9655 65.8327 39.8953 65.5854 39.8968 65.3334V59.8904C39.8968 59.1574 39.3088 58.5534 38.5838 58.5534H28.6948C27.9698 58.5534 27.3818 59.1524 27.3818 59.8904V63.7004C27.3798 64.213 27.5249 64.7154 27.7998 65.1481C28.0747 65.5807 28.4679 65.9254 28.9328 66.1414C29.2618 66.2914 45.5488 73.8214 45.5488 73.8214V73.8234ZM66.3728 57.7734C66.3728 59.1614 65.3768 60.1904 63.6908 60.1904H63.0828C62.1978 60.1904 61.5618 59.9844 61.1188 59.3674C60.6768 59.9844 60.0688 60.1904 59.1838 60.1904H58.4928C58.5758 60.3444 58.6308 60.5754 58.6308 60.7814C58.6308 61.8874 57.3588 62.8114 55.1748 62.8114C53.1008 62.8114 51.7188 61.7834 51.7188 59.9594C51.7188 59.2134 51.8848 58.2624 52.3268 57.7474C52.4368 57.5934 52.6588 57.4904 52.9068 57.4904C53.2668 57.4904 53.5988 57.7994 53.5988 58.1844C53.5934 58.304 53.5554 58.4199 53.4888 58.5194C53.1288 59.0844 53.1838 59.4194 53.1838 59.7534C53.1838 60.8584 53.8198 61.4234 55.2578 61.4234C56.3908 61.4234 57.3038 61.1674 57.3038 60.5754C57.3038 60.1654 56.9168 59.9844 56.3908 59.7274L55.9488 59.5224C55.7548 59.4444 55.4788 59.2644 55.4788 58.8794C55.4788 58.5704 55.7278 58.3134 56.0868 58.3134C56.2808 58.3134 56.3908 58.3654 56.6398 58.4674C57.3598 58.8024 57.9948 58.8794 59.1838 58.8794C59.8468 58.8794 60.3728 58.3904 60.3728 57.7994V53.0694C60.3728 52.7094 60.7048 52.4004 61.1188 52.4004C61.5338 52.4004 61.8658 52.7104 61.8658 53.0694V57.7994C61.8658 58.3904 62.3908 58.8794 63.0828 58.8794H63.6908C64.3538 58.8794 64.8798 58.3904 64.8798 57.7734V56.3854C64.8798 55.9994 65.2108 55.6914 65.6258 55.6914C66.0128 55.6914 66.3728 55.9994 66.3728 56.3854V57.7734ZM73.3958 57.7734C73.3958 59.1614 72.4008 60.1904 70.7138 60.1904H70.2988C68.6678 60.1904 67.7558 59.4704 67.7558 58.0824V53.0694C67.7558 52.7094 68.0868 52.4004 68.5018 52.4004C68.9168 52.4004 69.2488 52.7104 69.2488 53.0694V58.0564C69.2488 58.6474 69.6078 58.8794 70.3268 58.8794H70.7138C71.3498 58.8794 71.9028 58.3904 71.9028 57.7734V56.3854C71.9028 55.9994 72.2628 55.6914 72.6768 55.6914C73.0638 55.6914 73.3958 55.9994 73.3958 56.3854V57.7734ZM77.8158 58.8804C77.8158 57.5954 77.3738 57.2104 76.7108 57.2104C76.2128 57.2104 75.7708 57.4404 75.7708 58.0834C75.7708 58.5984 76.1298 58.8804 76.9588 58.8804H77.8158ZM84.0118 58.1864C84.0118 57.5954 83.7638 57.2094 83.1548 57.2094C82.5748 57.2094 82.2698 57.6204 82.0488 58.2124L81.7998 58.7774C82.0768 58.9834 82.4638 59.1634 82.9898 59.1634C83.7638 59.1634 84.0118 58.7264 84.0118 58.1864ZM85.3128 58.0844C85.3128 59.9604 84.0128 60.5264 82.8528 60.5264C81.9948 60.5264 81.3318 60.1404 80.9998 59.7034C80.5848 59.9864 80.0048 60.1914 79.2298 60.1914H79.1748C78.9538 62.1974 77.5158 62.8914 75.9398 62.8914C75.6088 62.8914 75.2488 62.8654 74.9168 62.8144C74.6958 62.7374 74.4468 62.4804 74.4468 62.2234C74.4468 61.8634 74.7788 61.6054 75.0828 61.6054C75.1378 61.6054 75.2488 61.6314 75.3318 61.6314C75.4698 61.6574 75.6358 61.6574 75.8568 61.6574C76.9628 61.6574 77.5988 61.2714 77.7098 60.1924H77.0458C75.1938 60.1924 74.5578 59.4204 74.5578 58.1614C74.5578 56.6444 75.5248 55.8214 76.7418 55.8214C78.0688 55.8214 78.9818 56.7474 79.1468 58.8814H79.2308C79.9768 58.8814 80.3088 58.7524 80.6408 58.0064C81.0828 56.9014 81.6638 55.8474 83.1568 55.8474C84.5388 55.8474 85.3128 56.9014 85.3128 58.0844ZM70.2998 61.6554C70.2998 61.2184 70.6868 60.8594 71.1568 60.8594C71.6268 60.8594 71.9868 61.2194 71.9868 61.6554C71.9868 62.0934 71.6268 62.4534 71.1568 62.4534C70.6868 62.4534 70.2998 62.0934 70.2998 61.6554ZM64.4128 61.6054C64.4128 61.1674 64.7998 60.8084 65.2428 60.8084C65.7128 60.8084 66.0998 61.1684 66.0998 61.6044C66.0998 62.0414 65.7128 62.4014 65.2428 62.4014C64.7998 62.4014 64.4128 62.0424 64.4128 61.6054ZM62.2508 61.6054C62.2508 61.1674 62.6658 60.8084 63.1358 60.8084C63.6058 60.8084 63.9928 61.1684 63.9928 61.6044C63.9928 62.0414 63.6058 62.4014 63.1358 62.4014C62.6658 62.4014 62.2508 62.0424 62.2508 61.6054ZM57.0818 64.2004C57.0818 64.6374 56.6678 64.9974 56.1978 64.9974C55.7278 64.9974 55.3678 64.6374 55.3678 64.2004C55.3678 63.7634 55.7278 63.4034 56.1978 63.4034C56.6678 63.4034 57.0818 63.7634 57.0818 64.2004ZM54.9818 64.2004C54.9818 64.6374 54.5668 64.9974 54.0968 64.9974C53.6268 64.9974 53.2398 64.6374 53.2398 64.2004C53.2398 63.7634 53.6268 63.4034 54.0968 63.4034C54.5668 63.4034 54.9818 63.7634 54.9818 64.2004ZM85.1438 67.8504C85.1456 67.9837 85.1172 68.1156 85.0608 68.2364L83.3188 72.0924C82.9048 72.9924 82.4888 73.7374 81.9368 74.2264C81.5768 74.5084 81.1628 74.6634 80.5548 74.6634C80.1668 74.6634 79.8628 74.3804 79.8628 74.0204C79.8628 73.6604 80.1668 73.3774 80.5548 73.3774C80.8028 73.3774 81.0248 73.3264 81.2178 73.1464C81.4118 72.9664 81.6048 72.5804 81.8538 72.0924C81.2458 70.8584 80.6368 69.4954 80.0288 68.2364C79.9724 68.1156 79.944 67.9837 79.9458 67.8504C79.9458 67.4904 80.3058 67.2084 80.6928 67.2084C80.9688 67.2084 81.2728 67.3364 81.3838 67.5934L82.5728 70.3434L83.7338 67.5934C83.8718 67.3624 84.2318 67.2084 84.4528 67.2084C84.8128 67.2084 85.1438 67.4654 85.1438 67.8504ZM78.9828 71.8364C78.9828 72.2224 78.6508 72.5304 78.2358 72.5304C77.8218 72.5304 77.4618 72.2224 77.4618 71.8364V65.6664C77.4618 65.2814 77.8218 64.9464 78.2358 64.9464C78.6508 64.9464 78.9828 65.2814 78.9828 65.6664V71.8364ZM75.6328 71.8354C75.6328 72.2214 75.3008 72.5294 74.9138 72.5294C74.4988 72.5294 74.1678 72.2214 74.1678 71.8354V67.9024C74.1678 67.5164 74.4988 67.2084 74.9138 67.2084C75.3008 67.2084 75.6328 67.5164 75.6328 67.9024V71.8354ZM74.0578 65.7694C74.0578 65.3324 74.4448 64.9724 74.8878 64.9724C75.3578 64.9724 75.7728 65.3324 75.7728 65.7694C75.7728 66.2064 75.3578 66.5914 74.8878 66.5914C74.6705 66.5869 74.4632 66.4991 74.3087 66.3461C74.1542 66.1931 74.0644 65.9867 74.0578 65.7694ZM71.2928 69.8824C71.2928 68.8024 70.7948 68.3654 70.1318 68.3654C69.3568 68.3654 68.9148 69.0084 68.9148 69.6254V70.2164C68.9148 70.9624 69.3568 71.3734 70.0488 71.3734C70.7948 71.3734 71.2928 70.9364 71.2928 69.8824ZM72.8128 69.8824C72.8128 71.7854 71.5408 72.5304 70.3528 72.5304C69.7158 72.5304 69.2458 72.3504 68.9138 72.0164C68.8308 72.3244 68.5268 72.5304 68.1678 72.5304C67.7528 72.5304 67.4208 72.2224 67.4208 71.8364V65.6664C67.4208 65.2814 67.7528 64.9464 68.1678 64.9464C68.5828 64.9464 68.9138 65.2814 68.9138 65.6664V67.8264C69.2458 67.4664 69.7988 67.2094 70.4628 67.2094C71.6228 67.2094 72.8128 67.9804 72.8128 69.8824ZM62.2508 69.8824C62.2508 70.8334 62.6928 71.3734 63.4398 71.3734C64.3248 71.3734 64.6838 70.8084 64.6838 69.8564C64.6838 68.9064 64.3518 68.3664 63.4668 68.3664C62.7208 68.3664 62.2508 68.9564 62.2508 69.8824ZM66.1768 69.8294C66.1768 71.4234 65.2088 72.5294 63.4118 72.5294C61.6138 72.5294 60.7298 71.4234 60.7298 69.9074C60.7298 68.3384 61.7248 67.2074 63.4948 67.2074C65.2648 67.2074 66.1768 68.3384 66.1768 69.8294ZM59.4298 71.8094C59.4298 72.1954 59.0698 72.5294 58.6558 72.5294C58.2128 72.5294 57.8818 72.1954 57.8818 71.8094L57.9088 68.2634C57.4388 68.9054 56.8588 69.6254 56.3888 70.2674C56.1388 70.5774 55.8628 70.6534 55.6688 70.6534C55.4488 70.6534 55.1988 70.5764 54.9788 70.2674L53.4848 68.2634V71.8104C53.4848 72.1954 53.1258 72.5304 52.7108 72.5304C52.2688 72.5304 51.9368 72.1954 51.9368 71.8104V66.0264C51.9368 65.6404 52.2688 65.3064 52.7108 65.3064C52.9608 65.3064 53.2088 65.4354 53.3748 65.6664L55.6968 68.7004L57.9918 65.6924C58.2128 65.4094 58.3518 65.3064 58.6558 65.3064C59.0708 65.3064 59.4298 65.6404 59.4298 66.0264V71.8094Z" fill="currentColor"/>
</g>
<defs>
<clipPath id="clip0_702_2864">
<rect width="124" height="125" fill="white"/>
</clipPath>
</defs>
</svg>
