<svg width="124" height="125" viewBox="0 0 124 125" fill="none" xmlns="http://www.w3.org/2000/svg">
<g clip-path="url(#clip0_702_2831)">
<path d="M34.7034 54.6602H34.5064C34.3149 54.685 34.136 54.7688 33.9945 54.9C33.8529 55.0312 33.7557 55.2032 33.7164 55.3922C32.2764 60.9092 29.4264 65.0752 25.9564 66.5382C29.1164 66.1162 31.9104 64.0332 33.8004 60.9652C33.2112 63.2153 32.1538 65.3157 30.6974 67.1292C29.1559 67.8324 27.4817 68.1972 25.7874 68.1992C22.1194 68.1992 18.7614 66.4822 16.0814 63.6392C16.0373 63.5847 15.9812 63.5411 15.9176 63.5118C15.8539 63.4825 15.7844 63.4682 15.7144 63.4702H15.6294C15.6014 63.4702 15.5734 63.4702 15.5454 63.4992C15.5174 63.4992 15.4884 63.5272 15.4604 63.5272C15.4324 63.5552 15.4044 63.5552 15.3754 63.5832C15.3218 63.5977 15.2734 63.6268 15.2354 63.6672C17.5484 67.5522 21.2734 70.2822 25.5904 70.8172C23.3572 71.6035 20.9102 71.5232 18.7334 70.5922C19.3265 71.2106 19.9892 71.7582 20.7084 72.2242C20.7589 72.2461 20.8064 72.2747 20.8494 72.3092H20.8784C20.9344 72.3372 20.9624 72.3652 21.0184 72.3932C21.0184 72.3932 21.0474 72.3932 21.0474 72.4212C21.1034 72.4492 21.1314 72.4782 21.1874 72.5062L21.2174 72.5342C21.2734 72.5622 21.3014 72.5902 21.3574 72.5902C21.3854 72.5902 21.3854 72.6182 21.4144 72.6182C21.4704 72.6472 21.4984 72.6752 21.5544 72.6752C21.5834 72.6752 21.5834 72.6752 21.6114 72.7032C21.6674 72.7312 21.6964 72.7312 21.7524 72.7592C21.7804 72.7592 21.7804 72.7592 21.8094 72.7872C21.8654 72.8152 21.8934 72.8152 21.9494 72.8432C21.9494 72.8432 21.9784 72.8432 21.9784 72.8722C22.1754 72.9562 22.3734 73.0402 22.5984 73.0972L22.6554 73.1252C22.6834 73.1252 22.7404 73.1532 22.7684 73.1532C22.7964 73.1532 22.8244 73.1812 22.8534 73.1812C22.8814 73.1812 22.9094 73.2092 22.9654 73.2092C22.9944 73.2092 23.0224 73.2382 23.0504 73.2382C23.0784 73.2382 23.1064 73.2662 23.1354 73.2662C23.1634 73.2662 23.1914 73.2942 23.2194 73.2942C23.2484 73.2942 23.2764 73.2942 23.3044 73.3222C23.3324 73.3222 23.3604 73.3222 23.3894 73.3502C23.4174 73.3502 23.4454 73.3502 23.4734 73.3782C23.5024 73.3782 23.5304 73.3782 23.5864 73.4062H23.6714C23.711 73.405 23.7502 73.415 23.7844 73.4352H24.6584C28.4964 73.3782 31.8824 70.1132 33.8284 65.1872C34.8735 62.433 35.4368 59.5194 35.4934 56.5742V55.6732C35.5214 55.1952 35.1834 54.7732 34.7034 54.6602Z" fill="currentColor"/>
<path d="M15.2344 63.6679C15.2665 63.633 15.3048 63.6041 15.3474 63.5829C15.3991 63.5415 15.4585 63.5109 15.5221 63.4927C15.5858 63.4746 15.6525 63.4693 15.7182 63.4772C15.784 63.4851 15.8475 63.5061 15.905 63.5388C15.9626 63.5716 16.013 63.6155 16.0534 63.6679C18.7334 66.5379 22.1194 68.2279 25.7594 68.2279C28.6934 68.2279 31.4594 67.1299 33.8294 65.2159C33.1013 67.1672 32.0097 68.9626 30.6124 70.5069C29.5124 70.8169 28.3554 70.9569 27.2264 70.9569C22.2324 70.9299 17.8304 68.0599 15.2344 63.6679Z" fill="currentColor"/>
<path d="M35.4934 55.8422V55.6732C35.4918 55.4384 35.4123 55.2108 35.2674 55.0262C35.2394 54.9702 35.1834 54.9422 35.1554 54.9132L35.1264 54.8852L35.0424 54.8012C35.0134 54.7732 34.9854 54.7732 34.9574 54.7732C34.9294 54.7732 34.9014 54.7452 34.9014 54.7452C34.8164 54.6882 34.7594 54.6882 34.7034 54.6602H34.4494C34.0824 54.7452 33.7724 55.0262 33.6874 55.3922C32.2484 60.9092 28.9474 64.8782 25.9284 66.5382C29.0884 66.1162 31.8824 64.0332 33.7724 60.9652C32.8974 64.1182 31.2894 66.7922 29.2294 68.6492C28.0734 69.0722 26.8594 69.2972 25.6464 69.2972C21.6394 69.2972 18.0844 67.0452 15.7144 63.4702C15.5734 63.4422 15.4604 63.4992 15.3474 63.5832C15.3049 63.604 15.2666 63.6325 15.2344 63.6672C17.5484 67.5522 21.2734 70.2822 25.5904 70.8172C23.3668 71.604 20.9283 71.5236 18.7614 70.5922L19.1564 70.9862L19.2414 71.0702C19.2974 71.1262 19.3824 71.1832 19.4394 71.2402C19.4713 71.2747 19.5092 71.3032 19.5514 71.3242C19.6364 71.3802 19.6924 71.4642 19.7774 71.5212C19.7774 71.5212 19.8054 71.5212 19.8054 71.5492C20.0874 71.7742 20.3704 71.9712 20.6804 72.1682C20.7084 72.1962 20.7364 72.1962 20.7654 72.2242C20.8494 72.2812 20.9054 72.3092 20.9904 72.3652C21.0194 72.3932 21.0754 72.4212 21.1034 72.4492C21.1604 72.4782 21.2444 72.5342 21.3014 72.5622C21.3574 72.5902 21.3854 72.6182 21.4414 72.6472C21.4984 72.6752 21.5834 72.7032 21.6394 72.7312L21.8094 72.8152C21.8654 72.8442 21.9494 72.8722 22.0064 72.9002C22.0581 72.9314 22.1162 72.9505 22.1764 72.9562C22.2362 72.9913 22.304 73.0105 22.3734 73.0122C22.4294 73.0402 22.4864 73.0412 22.5434 73.0692C22.5994 73.0972 22.6554 73.0972 22.7404 73.1252C22.7964 73.1532 22.8804 73.1532 22.9374 73.1812C22.9944 73.2092 23.0504 73.2092 23.1074 73.2382C23.1634 73.2662 23.2474 73.2662 23.3044 73.2942C23.3604 73.2942 23.4174 73.3222 23.4744 73.3222C23.5584 73.3222 23.6144 73.3502 23.6994 73.3502C23.7554 73.3502 23.8124 73.3782 23.8694 73.3782C23.9534 73.3782 24.0384 73.4062 24.1224 73.4062H24.6584C26.8594 73.4062 28.9184 72.3362 30.6404 70.5072C30.7534 70.3672 30.8944 70.2542 31.0074 70.1132C31.0354 70.0852 31.0634 70.0572 31.0634 70.0292L31.4024 69.6072L31.4864 69.5222C31.5994 69.3822 31.7124 69.2412 31.7964 69.1002C31.8322 69.0685 31.8614 69.0301 31.8824 68.9872C31.9944 68.8472 32.0794 68.6772 32.1924 68.5372C32.2204 68.5092 32.2484 68.4522 32.2774 68.4242C32.3614 68.2842 32.4744 68.1142 32.5594 67.9742C32.5874 67.9182 32.6154 67.8892 32.6434 67.8342C32.7284 67.6642 32.8134 67.5242 32.8974 67.3542C32.9264 67.2982 32.9544 67.2702 32.9824 67.2142C33.0674 67.0452 33.1524 66.8762 33.2364 66.7362L33.3214 66.5662C33.4054 66.3982 33.4904 66.2292 33.5464 66.0602C33.5754 66.0322 33.5754 66.0042 33.6034 65.9472C34.7589 63.1866 35.4085 60.2407 35.5214 57.2502V56.6872C35.4934 56.3772 35.4934 56.0962 35.4934 55.8422Z" fill="currentColor"/>
<path d="M18.7344 52.8299C18.7344 52.8299 30.8394 53.5619 25.7324 66.3399C25.7324 66.3689 44.6364 48.3539 18.7344 52.8299Z" fill="currentColor"/>
<path fill-rule="evenodd" clip-rule="evenodd" d="M40.2137 61.2723H43.2327C43.7967 61.2723 44.5027 61.4973 44.5027 62.3423C44.51 62.4793 44.4902 62.6163 44.4445 62.7456C44.3988 62.8748 44.328 62.9938 44.2362 63.0957C44.1445 63.1976 44.0335 63.2804 43.9097 63.3394C43.7859 63.3983 43.6517 63.4323 43.5147 63.4393H40.2137V61.2723ZM37.8438 68.3093H40.2137V65.1293H43.1757C43.9097 65.1293 44.4457 65.4383 44.4457 66.6493C44.4457 67.5493 44.4457 67.9153 44.6717 68.3093H47.2677C46.8437 67.8593 46.8158 66.8453 46.8158 66.4233C46.8158 65.5793 46.6467 64.2563 45.6307 64.0873V64.0593C46.6187 63.6933 47.0417 63.0173 47.0417 61.9763C47.0417 61.0753 46.6467 59.6113 44.2197 59.6113H37.8438V68.3093Z" fill="currentColor"/>
<path fill-rule="evenodd" clip-rule="evenodd" d="M53.5597 64.9313H50.8227L52.1777 61.4693L53.5597 64.9313ZM54.8857 68.3093H57.4537L53.6167 59.6113H50.7667L46.9297 68.3103H49.4697L50.1747 66.5083H54.1807L54.8867 68.3103L54.8857 68.3093Z" fill="currentColor"/>
<path d="M60.1356 63.3553V59.6113H57.7656V68.3093H60.1356V65.7193L61.5176 64.5373L64.4806 68.3093H67.6976L63.3806 63.1023L67.3866 59.6123H64.1996L60.1356 63.3553Z" fill="currentColor"/>
<path fill-rule="evenodd" clip-rule="evenodd" d="M71.2216 64.592H74.4666C75.2846 64.592 75.7366 64.958 75.7366 65.634C75.7496 65.7544 75.7387 65.8762 75.7045 65.9924C75.6702 66.1086 75.6134 66.2169 75.5372 66.311C75.461 66.4052 75.3669 66.4833 75.2604 66.541C75.1539 66.5986 75.0371 66.6347 74.9166 66.647H71.2226L71.2216 64.592ZM68.8516 68.308H75.0586C77.6826 68.308 78.2186 66.844 78.2186 65.662C78.2186 64.733 77.6826 63.72 76.6666 63.551V63.523C77.4006 63.269 77.8516 62.566 77.8236 61.778C77.8236 60.173 76.6386 59.582 75.3686 59.582H68.8516V68.308ZM71.2216 61.186H74.1836C75.1716 61.186 75.3976 61.581 75.3976 62.116C75.3976 62.763 75.0586 63.044 74.4946 63.044H71.1926L71.2216 61.186Z" fill="currentColor"/>
<path fill-rule="evenodd" clip-rule="evenodd" d="M84.2316 64.9314H81.4946L82.8776 61.4694L84.2316 64.9314ZM85.5576 68.3093H88.0976L84.2596 59.6104H81.4096L77.6016 68.3083H80.1406L80.8456 66.5063H84.8526L85.5576 68.3093Z" fill="currentColor"/>
<path d="M95.8015 65.6914H95.7725L91.2025 59.6114H88.4365V68.3093H90.7505V62.2574L95.5195 68.3093H98.0865V59.6104H95.8015V65.6914ZM101.183 63.3554V59.6114H98.8125V68.3093H101.183V65.7194L102.565 64.5374L105.556 68.3093H108.744L104.427 63.1024L108.434 59.6124H105.246L101.183 63.3554Z" fill="currentColor"/>
</g>
<defs>
<clipPath id="clip0_702_2831">
<rect width="124" height="125" fill="white"/>
</clipPath>
</defs>
</svg>
