<svg width="124" height="125" viewBox="0 0 124 125" fill="none" xmlns="http://www.w3.org/2000/svg">
<g clip-path="url(#clip0_702_2857)">
<mask id="mask0_702_2857" style="mask-type:luminance" maskUnits="userSpaceOnUse" x="25" y="52" width="73" height="21">
<path d="M25.8984 52.75H97.0984V72.75H25.8984V52.75Z" fill="white"/>
</mask>
<g mask="url(#mask0_702_2857)">
<path d="M49.0734 65.236H51.1684C51.2284 65.236 51.2544 65.27 51.2634 65.331C51.2634 66.205 52.4404 67.019 53.9814 67.019C55.4884 67.019 56.6314 66.153 56.6314 65.089C56.6314 64.69 56.4234 64.309 56.0164 63.971C55.6004 63.634 54.9164 63.417 53.9814 63.339C50.9774 63.097 49.0734 62.162 49.0734 59.616C49.0734 57.209 51.3414 55.824 53.6184 55.824C56.0514 55.824 58.2674 57.166 58.2674 59.521C58.2674 59.581 58.2414 59.608 58.1974 59.616H56.0774C56.0164 59.616 55.9904 59.582 55.9904 59.521C55.9904 58.742 55.1414 57.833 53.6184 57.833C52.3624 57.833 51.3584 58.638 51.3584 59.625C51.3584 60.733 52.7354 61.01 53.9814 61.158C55.9034 61.374 58.9084 61.79 58.9084 65.097C58.9084 67.513 57.0464 69.037 53.9814 69.037C50.3284 69.045 48.9954 67.062 48.9864 65.339C48.9774 65.27 49.0034 65.244 49.0734 65.236ZM60.5084 56.092C60.5084 56.032 60.5344 56.006 60.5944 56.006H62.6124C62.6724 56.006 62.6984 56.032 62.6984 56.092V68.76C62.6984 68.82 62.6724 68.847 62.6124 68.847H60.5944C60.5344 68.847 60.5084 68.821 60.5084 68.76V56.092ZM64.8204 56.092C64.8204 56.032 64.8464 56.006 64.9074 56.006H69.5994C73.4264 56.032 75.3484 58.733 75.3484 62.551C75.3484 66.431 73.4354 68.846 69.5994 68.846H64.9074C64.8474 68.846 64.8204 68.82 64.8204 68.759V56.092ZM67.0104 66.75C67.0104 66.811 67.0374 66.837 67.0974 66.846H69.6004C71.8084 66.846 73.0634 65.356 73.0634 62.551C73.0634 59.781 71.7824 58.006 69.6004 58.006H67.0804C67.0384 58.006 67.0124 58.032 67.0124 58.084V66.75H67.0104ZM76.9774 56.092C76.9774 56.032 77.0024 56.006 77.0634 56.006H85.9894C86.0494 56.006 86.0764 56.032 86.0764 56.092V57.919C86.0764 57.979 86.0504 58.006 85.9894 58.006H79.2534C79.1934 58.006 79.1674 58.041 79.1674 58.101V61.235C79.1674 61.295 79.1934 61.322 79.2544 61.322H85.0714C85.1324 61.322 85.1584 61.348 85.1674 61.408V63.235C85.1674 63.295 85.1324 63.322 85.0714 63.331H79.2544C79.1934 63.331 79.1674 63.356 79.1674 63.417V66.733C79.1674 66.793 79.1934 66.82 79.2544 66.828H85.9894C86.0494 66.828 86.0764 66.854 86.0764 66.915V68.742C86.0764 68.802 86.0504 68.828 85.9894 68.828H77.0634C77.0034 68.828 76.9774 68.802 76.9774 68.742V56.092ZM87.2604 65.236H89.3554C89.4154 65.236 89.4424 65.27 89.4504 65.331C89.4504 66.205 90.6284 67.019 92.1694 67.019C93.6754 67.019 94.8184 66.153 94.8184 65.089C94.8184 64.69 94.6104 64.309 94.2034 63.971C93.7884 63.634 93.1034 63.417 92.1694 63.339C89.1644 63.097 87.2594 62.162 87.2594 59.616C87.2594 57.209 89.5294 55.824 91.8054 55.824C94.2384 55.824 96.4554 57.166 96.4554 59.521C96.4554 59.581 96.4284 59.608 96.3854 59.616H94.2644C94.2044 59.616 94.1774 59.582 94.1774 59.521C94.1774 58.742 93.3294 57.833 91.8054 57.833C90.5504 57.833 89.5454 58.638 89.5454 59.625C89.5454 60.733 90.9224 61.01 92.1694 61.158C94.0914 61.374 97.0954 61.79 97.0954 65.097C97.0954 67.513 95.2334 69.037 92.1694 69.037C88.5154 69.045 87.1824 67.062 87.1734 65.339C87.1654 65.27 87.1994 65.244 87.2604 65.236ZM43.3184 56.118L37.4744 52.75L25.8984 59.434V62.646L28.9464 64.404L25.8984 66.161V69.373L31.7344 72.75L43.3094 66.066V62.854L40.2704 61.096L43.3174 59.33L43.3184 56.118Z" fill="currentColor"/>
</g>
</g>
<defs>
<clipPath id="clip0_702_2857">
<rect width="124" height="125" fill="white"/>
</clipPath>
</defs>
</svg>
