<svg width="124" height="125" viewBox="0 0 124 125" fill="none" xmlns="http://www.w3.org/2000/svg">
<g clip-path="url(#clip0_702_2843)">
<path d="M11.4502 56.4995L18.3002 52.1775C18.7718 51.8773 19.3146 51.7075 19.8732 51.6855C20.4322 51.7055 20.9742 51.8755 21.4462 52.1775L27.6432 56.0875C27.7181 56.1241 27.7837 56.1771 27.8353 56.2426C27.8869 56.308 27.9231 56.3842 27.9412 56.4655C27.9442 56.6115 27.7892 56.7915 27.5082 56.9675L21.4622 60.7845C20.9906 61.0863 20.4467 61.2562 19.8872 61.2765C19.3289 61.2552 18.7862 61.0865 18.3142 60.7875L11.7072 56.6185C11.6239 56.5731 11.5377 56.533 11.4492 56.4985L11.4502 56.4995Z" fill="currentColor"/>
<path d="M18.3002 67.0581C18.7732 67.3581 19.3162 67.5261 19.8732 67.5471C20.4332 67.5271 20.9772 67.3571 21.4492 67.0551L28.0332 62.8951C28.1172 62.8461 28.2062 62.8051 28.2972 62.7731L23.8512 59.9671L21.7602 61.2971C21.1953 61.6578 20.5431 61.8586 19.8732 61.8781C19.2037 61.8574 18.5522 61.6567 17.9872 61.2971L11.4032 57.1271C11.2437 57.0306 11.0548 56.9951 10.8712 57.0271C10.7625 57.0516 10.6602 57.0987 10.5709 57.1654C10.4817 57.2321 10.4075 57.3168 10.3532 57.4141C9.96316 58.0021 9.89016 59.1391 10.1642 60.2831C10.4392 61.4261 11.0602 62.4831 11.7272 62.9031L18.3012 67.0581H18.3002Z" fill="currentColor"/>
<path d="M18.3004 73.3249C18.7725 73.6234 19.3152 73.7918 19.8734 73.8129C20.4327 73.7923 20.9766 73.6236 21.4494 73.3239L28.0194 69.1719C28.6814 68.7499 29.3024 67.7189 29.5824 66.5489C29.8634 65.3789 29.7844 64.2819 29.3944 63.6799C29.3395 63.5831 29.265 63.4988 29.1756 63.4324C29.0862 63.3661 28.984 63.3193 28.8754 63.2949C28.6881 63.2631 28.4957 63.3008 28.3344 63.4009L21.7604 67.5559C21.195 67.9157 20.5432 68.1167 19.8734 68.1379C19.2039 68.1166 18.5524 67.9156 17.9874 67.5559L15.1894 65.7749L11.4194 68.1579C11.2644 68.2479 11.1164 68.4009 11.1134 68.5409C11.1094 68.6809 11.2654 68.8729 11.5454 69.0429L18.3014 73.3239L18.3004 73.3249ZM96.6774 55.0099C96.2627 55.0072 95.8659 54.8408 95.5734 54.5469C95.2801 54.2516 95.1142 53.8531 95.1114 53.4369C95.1174 53.0229 95.2844 52.6269 95.5774 52.3359C95.8696 52.0447 96.2648 51.8805 96.6774 51.8789C96.8801 51.8785 97.081 51.9183 97.2683 51.996C97.4556 52.0738 97.6255 52.188 97.7684 52.3319C98.0577 52.6245 98.2197 53.0195 98.2194 53.4309C98.2256 53.8465 98.0666 54.2475 97.7774 54.5459C97.6338 54.6921 97.4626 54.8084 97.2738 54.8881C97.085 54.9677 96.8823 55.0091 96.6774 55.0099ZM73.2524 53.2349H75.5644V61.4159L79.6044 57.3739H82.5444L77.8404 62.1199L82.5774 68.0099H79.6044L75.5774 62.8649V68.0109H73.2654L73.2524 53.2349ZM43.9534 64.5879C43.9534 66.9909 45.5394 68.1179 47.5674 68.1179C48.1496 68.1309 48.7303 68.0526 49.2884 67.8859V65.7999C48.8884 65.9399 48.4674 66.0129 48.0434 66.0129C46.8374 66.0129 46.2654 65.5339 46.2654 64.2049V59.4569H49.2054V57.3729H46.2654V54.4169H43.9534V57.3729H41.5554V59.4569H43.9534V64.5879ZM32.9324 65.9699C33.6924 67.4799 35.3024 68.2249 37.1814 68.2249C39.3614 68.2249 41.0104 66.9779 41.0234 64.9369C41.0234 63.1949 39.9094 62.2569 38.0504 61.7059L36.9704 61.3729C35.9354 61.0729 35.7004 60.6249 35.7004 60.1159C35.7004 59.4809 36.4214 59.1189 37.1184 59.1189C37.5173 59.1173 37.9103 59.2159 38.2612 59.4059C38.6121 59.5958 38.9096 59.8709 39.1264 60.2059L40.7364 58.9689C39.9964 57.7989 38.7464 57.1609 37.1614 57.1609C35.0474 57.1609 33.3984 58.3109 33.3754 60.2059C33.3554 61.7789 34.3074 62.9489 36.1474 63.4609L37.0754 63.7169C38.3444 64.0989 38.7044 64.4619 38.7044 65.0769C38.7044 65.8209 38.0074 66.2039 37.1814 66.2039C36.1044 66.2039 35.0674 65.6719 34.6444 64.7369L32.9324 65.9699Z" fill="currentColor"/>
<path fill-rule="evenodd" clip-rule="evenodd" d="M55.3341 68.2253C54.2476 68.2167 53.1883 67.885 52.2911 67.2723C51.3917 66.6575 50.6941 65.7905 50.2861 64.7803C49.8774 63.7688 49.775 62.6594 49.9918 61.5901C50.2085 60.5209 50.7348 59.5389 51.5051 58.7663C52.2739 57.9978 53.2536 57.475 54.3201 57.2643C55.3853 57.0543 56.4889 57.1664 57.4901 57.5863C58.4935 58.0075 59.3496 58.7167 59.9501 59.6243C60.5523 60.5345 60.8733 61.6019 60.8731 62.6933C60.8787 63.4241 60.7391 64.1487 60.4624 64.8251C60.1857 65.5014 59.7773 66.1161 59.2611 66.6333C58.7459 67.1476 58.1328 67.5534 57.4582 67.8268C56.7835 68.1002 56.062 68.2357 55.3341 68.2253ZM55.3341 66.0573C57.1941 66.0573 58.5041 64.5873 58.5041 62.6933C58.5041 60.7983 57.1841 59.3323 55.3341 59.3323C53.4841 59.3323 52.1391 60.8023 52.1391 62.6933C52.1391 64.5853 53.4511 66.0573 55.3341 66.0573Z" fill="currentColor"/>
<path d="M61.6602 62.6929C61.6602 65.8449 64.0682 68.2249 67.2402 68.2249C68.249 68.2388 69.2419 67.9722 70.1082 67.4549C70.977 66.9352 71.6854 66.1857 72.1552 65.2889L70.1232 64.1819C69.8756 64.7414 69.4709 65.217 68.9582 65.5509C68.4467 65.8835 67.8492 66.0593 67.2392 66.0569C65.3492 66.0569 64.0292 64.5849 64.0292 62.6929C64.0292 60.8009 65.3592 59.3319 67.2392 59.3319C67.8488 59.3295 68.4458 59.505 68.9572 59.8369C69.4692 60.1699 69.8742 60.6439 70.1232 61.2039L72.1682 60.0969C71.6976 59.1983 70.9873 58.4475 70.1162 57.9279C69.247 57.41 68.2508 57.1444 67.2392 57.1609C64.0682 57.1609 61.6602 59.5409 61.6602 62.6929Z" fill="currentColor"/>
<path fill-rule="evenodd" clip-rule="evenodd" d="M85.7661 57.3745H83.4531V72.3205H85.7661V66.5885C86.1691 67.1055 86.6863 67.5222 87.2772 67.806C87.8681 68.0899 88.5167 68.2331 89.1721 68.2245C92.0681 68.2245 94.2651 65.7345 94.2651 62.6925C94.2651 59.6505 92.0681 57.1605 89.1711 57.1605C88.5153 57.1523 87.8665 57.2961 87.2756 57.5806C86.6847 57.8652 86.1677 58.2827 85.7651 58.8005V57.3735L85.7661 57.3745ZM85.5901 62.6935C85.5901 60.7785 86.8791 59.2895 88.7621 59.2895C90.6221 59.2895 91.9261 60.7795 91.9261 62.6935C91.9261 64.6085 90.6451 66.0975 88.7621 66.0975C86.8791 66.0975 85.5901 64.6075 85.5901 62.6935Z" fill="currentColor"/>
<path d="M95.5039 57.374H97.8169V68.012H95.5039V57.374Z" fill="currentColor"/>
<path fill-rule="evenodd" clip-rule="evenodd" d="M114 62.4404C114 59.0134 111.675 57.1605 108.903 57.1605C108.173 57.1393 107.448 57.2679 106.77 57.5385C106.093 57.8091 105.478 58.2158 104.964 58.7335C104.446 59.2524 104.04 59.871 103.769 60.5517C103.499 61.2324 103.369 61.9611 103.389 62.6935C103.389 65.9285 105.692 68.2254 108.906 68.2254C111.126 68.2254 112.778 67.2675 113.729 65.7585L111.949 64.4815C111.401 65.4325 110.406 66.0975 108.926 66.0975C107.168 66.0975 105.774 64.9505 105.669 63.2055H113.977C114 62.8655 114 62.6734 114 62.4404ZM111.651 61.5034H105.774C106.092 59.9274 107.453 59.1395 108.821 59.1395C109.499 59.1135 110.163 59.3395 110.685 59.7765C111.208 60.2125 111.552 60.8264 111.651 61.5034Z" fill="currentColor"/>
<path d="M102.127 53.2354H99.8154V68.0124H102.127V53.2354ZM111.162 53.5144H110.654V53.2344H111.975V53.5144H111.466V55.0104H111.175L111.162 53.5144ZM112.514 55.0104V53.7334L113.102 54.5354L113.703 53.7334V55.0104H113.994V53.2354H113.729L113.098 54.0694L112.488 53.2354H112.223V55.0104H112.514Z" fill="currentColor"/>
</g>
<defs>
<clipPath id="clip0_702_2843">
<rect width="124" height="125" fill="white"/>
</clipPath>
</defs>
</svg>
