<svg width="124" height="125" viewBox="0 0 124 125" fill="none" xmlns="http://www.w3.org/2000/svg">
<g clip-path="url(#clip0_702_2821)">
<path d="M54.304 66.4V54.146H51.91V54.891C51.91 55.192 51.963 55.753 51.963 55.753H51.838C50.951 54.71 49.761 53.753 47.866 53.753C44.201 53.753 41.32 56.581 41.32 60.273C41.32 63.963 44.2 66.793 47.866 66.793C49.761 66.793 50.951 65.788 51.838 64.793H51.963C51.963 64.793 51.91 65.385 51.91 65.655V66.4H54.304ZM52.054 60.268V60.278C52.052 62.58 50.194 64.634 47.866 64.634C45.536 64.634 43.676 62.577 43.676 60.274C43.676 57.943 45.536 55.912 47.866 55.912C50.194 55.912 52.051 57.94 52.054 60.268ZM35.867 56.394H39.719L39.998 54.144H29V56.394H33.406V66.397H35.867V56.394ZM60.676 54.14H58.32V66.394H60.676V61.536L61.488 60.724L66.14 66.394H69.204L63.164 59.219L68.306 54.141H65.284L60.676 58.748H60.586C60.586 58.748 60.676 58.554 60.676 58.1V54.14ZM95.654 60.269C95.654 56.577 92.774 53.749 89.109 53.749C85.444 53.749 82.563 56.577 82.563 60.269C82.563 63.959 85.443 66.789 89.109 66.789C92.773 66.789 95.654 63.959 95.654 60.269ZM93.297 60.269C93.297 62.573 91.437 64.629 89.109 64.629C86.777 64.629 84.919 62.573 84.919 60.269C84.919 57.939 86.777 55.909 89.109 55.909C91.438 55.909 93.297 57.939 93.297 60.269ZM73.717 54.14H71.359V66.394H73.717V61.536L74.528 60.724L79.18 66.394H82.244L76.203 59.219L81.346 54.141H78.324L73.717 58.748H73.627C73.627 58.748 73.717 58.554 73.717 58.1V54.14ZM39.477 74.987H40.34V72.945H42.478V72.22H40.34V70.888H42.608V70.135H39.477V74.987ZM45.16 74.987H46.127L46.565 73.877H48.669L49.121 74.987H50.108L48.018 70.135H47.271L45.16 74.987ZM46.86 73.137L47.62 71.163L48.367 73.136L46.86 73.137ZM56.487 70.532C56.117 70.185 55.562 70.012 55.075 70.012C54.198 70.012 53.301 70.45 53.301 71.438C53.301 72.342 53.938 72.63 54.527 72.814C55.137 73.007 55.644 73.151 55.644 73.658C55.644 74.18 55.172 74.378 54.767 74.378C54.383 74.378 53.945 74.171 53.705 73.843L53.088 74.418C53.472 74.871 54.123 75.111 54.754 75.111C55.706 75.111 56.521 74.603 56.521 73.561C56.521 72.611 55.726 72.335 55.103 72.142C54.554 71.972 54.178 71.842 54.178 71.398C54.178 70.923 54.638 70.732 55.034 70.732C55.377 70.732 55.74 70.91 55.925 71.15L56.487 70.532ZM60.283 74.987H61.146V72.836H63.414V74.986H64.279V70.135H63.415V72.095H61.146V70.135H60.283V74.987ZM68.173 74.987H69.036V70.135H68.174V74.987H68.173ZM72.437 72.548C72.437 74.062 73.54 75.111 75.035 75.111C76.548 75.111 77.652 74.061 77.652 72.548C77.652 70.992 76.548 70.013 75.035 70.013C73.54 70.013 72.437 70.992 72.437 72.548ZM73.376 72.548C73.376 71.548 74.041 70.772 75.041 70.772C76.048 70.772 76.713 71.547 76.713 72.548C76.713 73.583 76.035 74.336 75.041 74.336C74.054 74.336 73.376 73.583 73.376 72.548ZM80.876 74.987H81.739V71.239H81.752L84.056 74.987H85.153V70.135H84.288V73.767H84.275L82.02 70.135H80.876V74.987Z" fill="currentColor"/>
</g>
<defs>
<clipPath id="clip0_702_2821">
<rect width="124" height="125" fill="white"/>
</clipPath>
</defs>
</svg>
