<svg width="24" height="24" viewBox="0 0 24 24" fill="none" xmlns="http://www.w3.org/2000/svg">
<path d="M6.45711 5.04289C6.06658 4.65237 5.43342 4.65237 5.04289 5.04289C4.65237 5.43342 4.65237 6.06658 5.04289 6.45711L5.75 5.75L6.45711 5.04289ZM17.5429 18.9571C17.9334 19.3476 18.5666 19.3476 18.9571 18.9571C19.3476 18.5666 19.3476 17.9334 18.9571 17.5429L18.25 18.25L17.5429 18.9571ZM12 21V20C7.58172 20 4 16.4183 4 12H3H2C2 17.5228 6.47715 22 12 22V21ZM3 12H4C4 7.58172 7.58172 4 12 4V3V2C6.47715 2 2 6.47715 2 12H3ZM12 3V4C16.4183 4 20 7.58172 20 12H21H22C22 6.47715 17.5228 2 12 2V3ZM21 12H20C20 16.4183 16.4183 20 12 20V21V22C17.5228 22 22 17.5228 22 12H21ZM5.75 5.75L5.04289 6.45711L17.5429 18.9571L18.25 18.25L18.9571 17.5429L6.45711 5.04289L5.75 5.75Z" fill="currentColor"/>
</svg>
