<svg width="24" height="24" viewBox="0 0 24 24" fill="none" xmlns="http://www.w3.org/2000/svg">
<path d="M6.1782 13.8863C6.37482 13.3517 7.13058 13.3517 7.33335 13.8863L7.98466 15.6497C8.0461 15.8156 8.18128 15.9508 8.34718 16.0122L10.1106 16.6636C10.6452 16.8602 10.6452 17.6159 10.1106 17.8187L8.34718 18.47C8.18128 18.5315 8.0461 18.6666 7.98466 18.8325L7.33335 20.596C7.13673 21.1305 6.38097 21.1305 6.1782 20.596L5.52689 18.8325C5.46545 18.6666 5.33027 18.5315 5.16437 18.47L3.40092 17.8187C2.86636 17.6221 2.86636 16.8663 3.40092 16.6636L5.16437 16.0122C5.33027 15.9508 5.46545 15.8156 5.52689 15.6497L6.1782 13.8863Z" fill="currentColor"/>
<path d="M13.2627 3.6076C13.5577 2.80268 14.6944 2.80268 14.9893 3.6076L16.3042 7.15292C16.3964 7.40485 16.5992 7.60147 16.8511 7.69978L20.3964 9.01468C21.2013 9.30962 21.2013 10.4463 20.3964 10.7413L16.8511 12.0562C16.5992 12.1483 16.4025 12.3511 16.3042 12.603L14.9893 16.1484C14.6944 16.9533 13.5577 16.9533 13.2627 16.1484L11.9478 12.603C11.8557 12.3511 11.6529 12.1545 11.401 12.0562L7.85564 10.7413C7.05072 10.4463 7.05072 9.30962 7.85564 9.01468L11.401 7.69978C11.6529 7.60761 11.8495 7.40485 11.9478 7.15292L13.2627 3.6076Z" fill="currentColor"/>
</svg>
