<svg width="24" height="24" viewBox="0 0 24 24" fill="none" xmlns="http://www.w3.org/2000/svg">
<path d="M3.9375 7.33149L3.23039 6.62438L3.23039 6.62438L3.9375 7.33149ZM3.9375 16.6685L3.23039 17.3756H3.23039L3.9375 16.6685ZM7.33173 20.0627L8.03884 19.3556V19.3556L7.33173 20.0627ZM16.6689 20.0627L15.9618 19.3556V19.3556L16.6689 20.0627ZM20.0632 16.6685L20.7703 17.3756H20.7703L20.0632 16.6685ZM20.0632 7.33148L19.3561 8.03859V8.03859L20.0632 7.33148ZM16.6689 3.93726L17.3761 3.23015V3.23015L16.6689 3.93726ZM15.9482 3.29468L16.4707 2.44204V2.44204L15.9482 3.29468ZM15.3702 3.05526L15.6036 2.08289L15.3702 3.05526ZM20.9443 8.63025L21.9167 8.3968V8.3968L20.9443 8.63025ZM20.705 8.05223L19.8524 8.57473L20.705 8.05223ZM20.705 15.9479L21.5577 16.4704V16.4704L20.705 15.9479ZM20.9443 15.3697L21.9167 15.6032V15.6032L20.9443 15.3697ZM15.3702 20.9447L15.6036 21.9171V21.9171L15.3702 20.9447ZM15.9482 20.7053L15.4257 19.8526V19.8526L15.9482 20.7053ZM8.05174 20.7053L7.52924 21.5579L8.05174 20.7053ZM8.62988 20.9447L8.86333 19.9723L8.62988 20.9447ZM3.05526 15.3697L2.08289 15.6032L3.05526 15.3697ZM3.29492 15.9478L2.44228 16.4703L3.29492 15.9478ZM3.29492 8.05223L4.14756 8.57473H4.14756L3.29492 8.05223ZM3.05526 8.63025L2.08289 8.3968L3.05526 8.63025ZM8.05174 3.29468L7.52924 2.44204L8.05174 3.29468ZM8.62988 3.05526L8.39644 2.08289L8.62988 3.05526ZM12.0498 15.45H13.0498C13.0498 14.8977 12.6021 14.45 12.0498 14.45V15.45ZM12.0498 15.55L12.0496 16.55C12.3148 16.55 12.5692 16.4447 12.7568 16.2571C12.9444 16.0696 13.0498 15.8152 13.0498 15.55H12.0498ZM11.9502 15.5499H10.9502C10.9502 16.1021 11.3978 16.5498 11.9499 16.5499L11.9502 15.5499ZM11.9502 15.45V14.45C11.3979 14.45 10.9502 14.8977 10.9502 15.45H11.9502ZM13 8.44995C13 7.89767 12.5523 7.44995 12 7.44995C11.4477 7.44995 11 7.89767 11 8.44995H12H13ZM11 12.45C11 13.0022 11.4477 13.45 12 13.45C12.5523 13.45 13 13.0022 13 12.45H12H11ZM7.33173 3.93726L6.62463 3.23015L3.23039 6.62438L3.9375 7.33149L4.64461 8.0386L8.03884 4.64436L7.33173 3.93726ZM3 9.59424H2V14.4058H3H4V9.59424H3ZM3.9375 16.6685L3.23039 17.3756L6.62462 20.7698L7.33173 20.0627L8.03884 19.3556L4.64461 15.9614L3.9375 16.6685ZM9.59375 21V22H14.4053V21V20H9.59375V21ZM16.6689 20.0627L17.3761 20.7698L20.7703 17.3756L20.0632 16.6685L19.3561 15.9614L15.9618 19.3556L16.6689 20.0627ZM21 14.4058H22V9.59424H21H20V14.4058H21ZM20.0632 7.33148L20.7703 6.62438L17.3761 3.23015L16.6689 3.93726L15.9618 4.64436L19.3561 8.03859L20.0632 7.33148ZM14.4053 3V2H9.59375V3V4H14.4053V3ZM16.6689 3.93726L17.3761 3.23015C17.0639 2.91795 16.797 2.64196 16.4707 2.44204L15.9482 3.29468L15.4257 4.14732C15.5032 4.19477 15.5822 4.26475 15.9618 4.64436L16.6689 3.93726ZM14.4053 3V4C14.9422 4 15.0485 4.00644 15.1368 4.02763L15.3702 3.05526L15.6036 2.08289C15.2316 1.99356 14.8467 2 14.4053 2V3ZM15.9482 3.29468L16.4707 2.44204C16.2023 2.27753 15.9097 2.15637 15.6036 2.08289L15.3702 3.05526L15.1368 4.02763C15.2388 4.05214 15.3363 4.09251 15.4257 4.14732L15.9482 3.29468ZM21 9.59424H22C22 9.15123 22.0059 8.7685 21.9167 8.3968L20.9443 8.63025L19.972 8.86369C19.9932 8.95235 20 9.05889 20 9.59424H21ZM20.0632 7.33148L19.3561 8.03859C19.7343 8.41679 19.8047 8.49689 19.8524 8.57473L20.705 8.05223L21.5577 7.52973C21.358 7.20391 21.0839 6.93796 20.7703 6.62438L20.0632 7.33148ZM20.9443 8.63025L21.9167 8.3968C21.8433 8.09106 21.7224 7.79847 21.5577 7.52973L20.705 8.05223L19.8524 8.57473C19.907 8.66388 19.9474 8.76129 19.972 8.86369L20.9443 8.63025ZM20.0632 16.6685L20.7703 17.3756C21.0836 17.0622 21.358 16.7963 21.5577 16.4704L20.705 15.9479L19.8524 15.4254C19.8048 15.5031 19.7346 15.5829 19.3561 15.9614L20.0632 16.6685ZM21 14.4058H20C20 14.9411 19.9933 15.0476 19.972 15.1363L20.9443 15.3697L21.9167 15.6032C22.0059 15.2315 22 14.8488 22 14.4058H21ZM20.705 15.9479L21.5577 16.4704C21.7225 16.2015 21.8433 15.9087 21.9167 15.6032L20.9443 15.3697L19.972 15.1363C19.9473 15.2388 19.9069 15.3364 19.8524 15.4254L20.705 15.9479ZM14.4053 21V22C14.8468 22 15.2316 22.0064 15.6036 21.9171L15.3702 20.9447L15.1368 19.9723C15.0484 19.9935 14.9421 20 14.4053 20V21ZM16.6689 20.0627L15.9618 19.3556C15.5822 19.7352 15.5032 19.8052 15.4257 19.8526L15.9482 20.7053L16.4707 21.5579C16.797 21.358 17.0639 21.0819 17.3761 20.7698L16.6689 20.0627ZM15.3702 20.9447L15.6036 21.9171C15.9097 21.8436 16.2023 21.7224 16.4707 21.5579L15.9482 20.7053L15.4257 19.8526C15.3363 19.9074 15.2388 19.9478 15.1368 19.9723L15.3702 20.9447ZM7.33173 20.0627L6.62462 20.7698C6.93562 21.0808 7.20266 21.3578 7.52924 21.5579L8.05174 20.7053L8.57424 19.8526C8.49716 19.8054 8.41965 19.7364 8.03884 19.3556L7.33173 20.0627ZM9.59375 21V20C9.05712 20 8.95168 19.9935 8.86333 19.9723L8.62988 20.9447L8.39644 21.9171C8.76843 22.0064 9.15202 22 9.59375 22V21ZM8.05174 20.7053L7.52924 21.5579C7.7978 21.7225 8.09048 21.8436 8.39644 21.9171L8.62988 20.9447L8.86333 19.9723C8.76114 19.9478 8.66358 19.9074 8.57424 19.8526L8.05174 20.7053ZM3 14.4058H2C2 14.8474 1.99357 15.2311 2.08289 15.6032L3.05526 15.3697L4.02763 15.1363C4.00643 15.0479 4 14.9425 4 14.4058H3ZM3.9375 16.6685L4.64461 15.9614C4.265 15.5817 4.19501 15.5027 4.14756 15.4253L3.29492 15.9478L2.44228 16.4703C2.6422 16.7965 2.9182 17.0634 3.23039 17.3756L3.9375 16.6685ZM3.05526 15.3697L2.08289 15.6032C2.15654 15.9099 2.27815 16.2024 2.44228 16.4703L3.29492 15.9478L4.14756 15.4253C4.09238 15.3352 4.05197 15.2376 4.02763 15.1363L3.05526 15.3697ZM3.9375 7.33149L3.23039 6.62438C2.91814 6.93664 2.64219 7.20351 2.44228 7.52973L3.29492 8.05223L4.14756 8.57473C4.19502 8.49728 4.26506 8.41814 4.64461 8.03859L3.9375 7.33149ZM3 9.59424H4C4 9.05745 4.00643 8.95201 4.02763 8.86369L3.05526 8.63025L2.08289 8.3968C1.99357 8.76884 2 9.15266 2 9.59424H3ZM3.29492 8.05223L2.44228 7.52973C2.27817 7.79754 2.15655 8.09 2.08289 8.3968L3.05526 8.63025L4.02763 8.86369C4.05196 8.76235 4.09236 8.66481 4.14756 8.57473L3.29492 8.05223ZM7.33173 3.93726L8.03884 4.64436C8.41963 4.26357 8.49715 4.19456 8.57424 4.14732L8.05174 3.29468L7.52924 2.44204C7.20267 2.64216 6.93564 2.91913 6.62463 3.23015L7.33173 3.93726ZM9.59375 3V2C9.15215 2 8.76847 1.99357 8.39644 2.08289L8.62988 3.05526L8.86333 4.02763C8.95165 4.00643 9.05698 4 9.59375 4V3ZM8.05174 3.29468L8.57424 4.14732C8.66357 4.09258 8.76113 4.05217 8.86333 4.02763L8.62988 3.05526L8.39644 2.08289C8.09049 2.15634 7.7978 2.27746 7.52924 2.44204L8.05174 3.29468ZM12.0498 15.45H11.0498V15.55H12.0498H13.0498V15.45H12.0498ZM12.0498 15.55L12.0501 14.55L11.9504 14.5499L11.9502 15.5499L11.9499 16.5499L12.0496 16.55L12.0498 15.55ZM11.9502 15.5499H12.9502V15.45H11.9502H10.9502V15.5499H11.9502ZM11.9502 15.45V16.45H12.0498V15.45V14.45H11.9502V15.45ZM12 8.44995H11V12.45H12H13V8.44995H12Z" fill="currentColor"/>
</svg>
